<?xml version="1.0" standalone="no"?>
<!DOCTYPE svg PUBLIC "-//W3C//DTD SVG 1.1//EN"
  "http://www.w3.org/Graphics/SVG/1.1/DTD/svg11.dtd">
<svg width="145.07999801635742mm" height="22.399999618530266mm" viewBox="-58.439998626708984 -8.920000076293944 145.07999801635742 22.399999618530266" xmlns="http://www.w3.org/2000/svg" version="1.1">
	<title>svgOutput</title>
	<desc>made with tinkercad</desc>
<path d="M 84.21099853515625 -6.302000045776365 L 84.33417510986328 -6.14400005340576 L 84.35600280761719 -6.116000175476072 L 84.4800033569336 -5.920000076293944 L 84.58999633789062 -5.7239999771118155 L 84.68000030517578 -5.521999835968017 L 84.75 -5.315000057220458 L 84.80000305175781 -5.10200023651123 L 84.83000183105469 -4.883999824523925 L 84.83999633789062 -4.6599998474121085 L 84.83399963378906 -4.501999855041503 L 84.81800079345703 -4.347000122070312 L 84.79000091552734 -4.195000171661376 L 84.76390838623047 -4.09600019454956 L 84.7509994506836 -4.046999931335448 L 84.70099639892578 -3.9019999504089347 L 84.63999938964844 -3.759999990463256 L 84.56099700927734 -3.622999906539916 L 84.47100067138672 -3.4909999370574942 L 84.37000274658203 -3.3650000095367423 L 84.25800323486328 -3.243999958038329 L 84.13400268554688 -3.128999948501586 L 84 -3.019999980926513 L 83.96800231933594 -2.998526334762573 L 83.8479995727539 -2.917999982833862 L 83.68399810791016 -2.8239998817443843 L 83.51000213623047 -2.7400000095367427 L 83.3239974975586 -2.664000034332275 L 83.12799835205078 -2.598000049591064 L 82.91999816894531 -2.539999961853027 L 82.70099639892578 -2.4849998950958248 L 82.46900177001953 -2.4400000572204585 L 82.2249984741211 -2.40499997138977 L 81.96900177001953 -2.3800001144409175 L 81.91999816894531 -2.377257347106933 L 81.74618530273438 -2.367529153823852 L 81.70099639892578 -2.3650000095367427 L 81.66400146484375 -2.3643417358398433 L 81.58032989501953 -2.362852811813354 L 81.53824615478516 -2.362103939056396 L 81.50065612792969 -2.361435174942016 L 81.46886444091797 -2.360869407653808 L 81.44465637207031 -2.3604388236999507 L 81.4297103881836 -2.3601727485656734 L 81.41999816894531 -2.3599998950958248 L 81.41600036621094 -2.5559999942779537 L 81.4020004272461 -2.7560000419616695 L 81.37999725341797 -2.960000038146972 L 81.3489990234375 -3.1689999103546134 L 81.30899810791016 -3.381999969482421 L 81.26000213623047 -3.5999999046325675 L 81.2020034790039 -3.823999881744384 L 81.13300323486328 -4.04199981689453 L 81.11322784423828 -4.09600019454956 L 81.05500030517578 -4.255000114440917 L 80.96700286865234 -4.461999893188476 L 80.86799621582031 -4.6640000343322745 L 80.76000213623047 -4.860000133514403 L 80.63400268554688 -5.0479998588562 L 80.49800109863281 -5.2239999771118155 L 80.3499984741211 -5.389999866485595 L 80.19100189208984 -5.5440001487731925 L 80.02100372314453 -5.688000202178954 L 79.87200164794922 -5.796662807464599 L 79.83999633789062 -5.820000171661376 L 79.64700317382812 -5.935999870300292 L 79.44000244140625 -6.0310001373291 L 79.22000122070312 -6.1050000190734846 L 78.98699951171875 -6.157999992370604 L 78.73999786376953 -6.189000129699705 L 78.4800033569336 -6.199999809265135 L 78.29499816894531 -6.195000171661375 L 78.11299896240234 -6.179999828338621 L 77.93499755859375 -6.155000209808348 L 77.8239974975586 -6.132800102233885 L 77.76000213623047 -6.11999988555908 L 77.58799743652344 -6.074999809265135 L 77.41999816894531 -6.019999980926512 L 77.25700378417969 -5.961999893188476 L 77.0999984741211 -5.895999908447265 L 76.94999694824219 -5.820000171661376 L 76.80699920654297 -5.736000061035155 L 76.66999816894531 -5.642000198364257 L 76.54000091552734 -5.5399999618530265 L 76.41799926757812 -5.42899990081787 L 76.30400085449219 -5.309000015258788 L 76.19999694824219 -5.179999828338622 L 76.15826416015625 -5.119999885559081 L 76.10399627685547 -5.04199981689453 L 76.01799774169922 -4.895999908447265 L 75.94000244140625 -4.739999771118163 L 75.87899780273438 -4.576000213623046 L 75.8290023803711 -4.401999950408935 L 75.79000091552734 -4.2199997901916495 L 75.7760009765625 -4.124499797821044 L 75.77182006835938 -4.09600019454956 L 75.76200103759766 -4.028999805450439 L 75.74600219726562 -3.828999996185302 L 75.73999786376953 -3.619999885559081 L 75.74500274658203 -3.42899990081787 L 75.76000213623047 -3.2420001029968253 L 75.78500366210938 -3.05999994277954 L 75.81999969482422 -2.8819999694824214 L 75.86499786376953 -2.7090001106262203 L 75.91999816894531 -2.539999961853027 L 75.99500274658203 -2.3670001029968257 L 76.08699798583984 -2.1960000991821285 L 76.18047332763672 -2.04800009727478 L 76.19499969482422 -2.025000095367431 L 76.31999969482422 -1.8559999465942378 L 76.46199798583984 -1.6870000362396236 L 76.62000274658203 -1.5199999809265132 L 76.7979965209961 -1.3539999723434444 L 76.99800109863281 -1.189000010490417 L 77.22000122070312 -1.0249999761581416 L 77.46399688720703 -0.8619999885559079 L 77.73100280761719 -0.7009999752044676 L 77.8239974975586 -0.649190306663513 L 78.0199966430664 -0.5400000214576719 L 78.3280029296875 -0.37099999189376814 L 78.66699981689453 -0.19799999892711623 L 79.03500366210938 -0.01999999955296505 L 79.0787353515625 1.1102230246251565e-16 L 79.43299865722656 0.16200000047683724 L 79.7793960571289 0.3129930496215821 L 79.86199951171875 0.34900000691413885 L 80.31999969482422 0.5400000214576721 L 80.78199768066406 0.734000027179718 L 81.22200012207031 0.9290000200271605 L 81.63999938964844 1.125 L 81.91999816894531 1.2642929553985596 L 82.03600311279297 1.3220000267028809 L 82.40899658203125 1.5210000276565547 L 82.76000213623047 1.720000028610229 L 83.08300018310547 1.9290000200271602 L 83.38700103759766 2.1419999599456783 L 83.66999816894531 2.3599998950958248 L 83.93299865722656 2.5820000171661373 L 84.177001953125 2.8090000152587886 L 84.4000015258789 3.0399999618530265 L 84.60399627685547 3.2769999504089347 L 84.78900146484375 3.519999980926513 L 84.95500183105469 3.769999980926513 L 85.10199737548828 4.026999950408935 L 85.1358413696289 4.09600019454956 L 85.23100280761719 4.2899999618530265 L 85.33999633789062 4.55999994277954 L 85.43199920654297 4.8449997901916495 L 85.50700378417969 5.139999866485595 L 85.56500244140625 5.445000171661376 L 85.60700225830078 5.760000228881835 L 85.63200378417969 6.085000038146971 L 85.63340759277344 6.14400005340576 L 85.63999938964844 6.4200000762939435 L 85.625 6.8610000610351545 L 85.58000183105469 7.289000034332274 L 85.50499725341797 7.704999923706053 L 85.4000015258789 8.10900020599365 L 85.37141418457031 8.19200038909912 L 85.26499938964844 8.501000404357908 L 85.0999984741211 8.880000114440916 L 84.91300201416016 9.244000434875487 L 84.69999694824219 9.590999603271483 L 84.45999908447266 9.920000076293944 L 84.19300079345703 10.230999946594237 L 83.9000015258789 10.524000167846678 L 83.58000183105469 10.800000190734862 L 83.23600006103516 11.057000160217283 L 82.87100219726562 11.29300022125244 L 82.48500061035156 11.510000228881834 L 82.0780029296875 11.706999778747557 L 81.91999816894531 11.771820068359373 L 81.64900207519531 11.88300037384033 L 81.19999694824219 12.039999961853024 L 80.7239990234375 12.17399978637695 L 80.22899627685547 12.284000396728512 L 80.20509338378906 12.28800010681152 L 79.71499633789062 12.369999885559078 L 79.18199920654297 12.430999755859371 L 78.63099670410156 12.468000411987301 L 78.05999755859375 12.479999542236325 L 77.8239974975586 12.476477622985836 L 77.45700073242188 12.470999717712399 L 76.88700103759766 12.442000389099118 L 76.3499984741211 12.395000457763668 L 75.84700012207031 12.329000473022457 L 75.62029266357422 12.28800010681152 L 75.37699890136719 12.244000434875485 L 74.94000244140625 12.14000034332275 L 74.54000091552734 12.01399993896484 L 74.16699981689453 11.878000259399412 L 73.81999969482422 11.729999542236326 L 73.72799682617188 11.684287071228026 L 73.5 11.571000099182127 L 73.20700073242188 11.401000022888182 L 72.94000244140625 11.220000267028807 L 72.6989974975586 11.036000251770018 L 72.48200225830078 10.842000007629393 L 72.29000091552734 10.640000343322752 L 72.12200164794922 10.42899990081787 L 71.99915313720703 10.239999771118162 L 71.97899627685547 10.20899963378906 L 71.86000061035156 9.979999542236326 L 71.76799774169922 9.748000144958494 L 71.69300079345703 9.51799964904785 L 71.63500213623047 9.289999961853026 L 71.59300231933594 9.064000129699705 L 71.56800079345703 8.840999603271483 L 71.55999755859375 8.61999988555908 L 71.56700134277344 8.385999679565428 L 71.58622741699219 8.19200038909912 L 71.58899688720703 8.163999557495115 L 71.625 7.954999923706053 L 71.6760025024414 7.757999897003172 L 71.68000030517578 7.746615409851072 L 71.74099731445312 7.572999954223631 L 71.81999969482422 7.40000009536743 L 71.91200256347656 7.243999958038328 L 72.01300048828125 7.098000049591063 L 72.125 6.960000038146971 L 72.24700164794922 6.830999851226805 L 72.37799835205078 6.710999965667723 L 72.5199966430664 6.599999904632567 L 72.66999816894531 6.504000186920164 L 72.8270034790039 6.41800022125244 L 72.98999786376953 6.340000152587889 L 73.16000366210938 6.270999908447264 L 73.33699798583984 6.210999965667723 L 73.5199966430664 6.159999847412108 L 73.58995056152344 6.14400005340576 L 73.70800018310547 6.117000102996824 L 73.72799682617188 6.113354206085203 L 73.9000015258789 6.081999778747557 L 74.09500122070312 6.054999828338621 L 74.22582244873047 6.042446613311766 L 74.29299926757812 6.0359997749328596 L 74.3963851928711 6.029858112335203 L 74.49500274658203 6.024000167846678 L 74.50883483886719 6.023730278015135 L 74.59269714355469 6.022093772888182 L 74.64755249023438 6.021023273468016 L 74.68397521972656 6.020312786102293 L 74.69999694824219 6.019999980926512 L 74.70800018310547 6.41200017929077 L 74.73100280761719 6.78700017929077 L 74.7699966430664 7.144999980926512 L 74.8239974975586 7.486999988555906 L 74.89399719238281 7.811999797821043 L 74.9800033569336 8.11999988555908 L 75.00613403320312 8.19200038909912 L 75.08599853515625 8.411999702453612 L 75.2020034790039 8.687000274658201 L 75.33000183105469 8.944999694824217 L 75.46900177001953 9.187000274658201 L 75.61900329589844 9.411999702453612 L 75.77999877929688 9.61999988555908 L 75.9520034790039 9.812000274658201 L 76.13600158691406 9.987000465393065 L 76.33000183105469 10.14500045776367 L 76.46781921386719 10.239999771118162 L 76.53600311279297 10.286999702453612 L 76.75199890136719 10.411999702453612 L 76.9800033569336 10.52000045776367 L 77.21700286865234 10.612000465393065 L 77.45999908447266 10.687000274658201 L 77.70999908447266 10.74499988555908 L 77.8239974975586 10.763629913330076 L 77.96700286865234 10.786999702453612 L 78.2300033569336 10.812000274658201 L 78.5 10.819999694824217 L 78.76799774169922 10.814000129699705 L 79.0270004272461 10.795999526977537 L 79.2750015258789 10.765000343322752 L 79.51300048828125 10.72200012207031 L 79.74199676513672 10.66699981689453 L 79.87200164794922 10.62704563140869 L 79.95999908447266 10.600000381469725 L 80.16799926757812 10.515999794006346 L 80.36399841308594 10.421999931335447 L 80.55000305175781 10.319999694824217 L 80.67540740966797 10.239999771118162 L 80.7239990234375 10.20899963378906 L 80.88800048828125 10.088999748229979 L 81.04000091552734 9.96000003814697 L 81.18099975585938 9.82199954986572 L 81.31099700927734 9.675999641418455 L 81.43000030517578 9.52000045776367 L 81.53800201416016 9.355999946594237 L 81.63400268554688 9.182000160217283 L 81.72000122070312 8.999999999999998 L 81.79299926757812 8.81700038909912 L 81.85299682617188 8.628999710083006 L 81.9000015258789 8.435000419616697 L 81.91999816894531 8.314393997192381 L 81.93299865722656 8.236000061035154 L 81.93729400634766 8.19200038909912 L 81.9530029296875 8.0310001373291 L 81.95999908447266 7.820000171661375 L 81.9520034790039 7.591000080108641 L 81.927001953125 7.368999958038328 L 81.91999816894531 7.333333492279051 L 81.88500213623047 7.155000209808348 L 81.8270034790039 6.948999881744383 L 81.75199890136719 6.75099992752075 L 81.66000366210938 6.559999942779539 L 81.55799865722656 6.38199996948242 L 81.44000244140625 6.209000110626219 L 81.38807678222656 6.14400005340576 L 81.30500030517578 6.039999961853026 L 81.15299987792969 5.875999927520751 L 80.98500061035156 5.716000080108642 L 80.80000305175781 5.55999994277954 L 80.5989990234375 5.401999950408935 L 80.38200378417969 5.247000217437743 L 80.1500015258789 5.0949997901916495 L 79.9020004272461 4.94700002670288 L 79.63899993896484 4.802000045776366 L 79.36000061035156 4.6599998474121085 L 79.05799865722656 4.512000083923339 L 78.73999786376953 4.361999988555907 L 78.40499877929688 4.210000038146972 L 78.1444320678711 4.09600019454956 L 78.0530014038086 4.056000232696532 L 77.8239974975586 3.9583015441894522 L 77.68499755859375 3.8989999294280997 L 77.30000305175781 3.7400000095367423 L 76.83200073242188 3.5390000343322745 L 76.38899993896484 3.3380000591278067 L 75.97000122070312 3.134999990463256 L 75.57599639892578 2.9309999942779537 L 75.20600128173828 2.726000070571899 L 74.86000061035156 2.5199999809265132 L 74.53800201416016 2.3039999008178706 L 74.23799896240234 2.0840001106262203 L 73.95999908447266 1.8600000143051143 L 73.72799682617188 1.6524688005447383 L 73.7040023803711 1.6310000419616695 L 73.47100067138672 1.3980000019073486 L 73.26000213623047 1.159999966621399 L 73.06300354003906 0.9100000262260436 L 72.88700103759766 0.652999997138977 L 72.7300033569336 0.38999998569488525 L 72.59300231933594 0.11999999731779107 L 72.5427474975586 1.1102230246251565e-16 L 72.47699737548828 -0.1570000052452086 L 72.37999725341797 -0.439999997615814 L 72.3010025024414 -0.7250000238418577 L 72.23600006103516 -1.0199999809265132 L 72.18499755859375 -1.3250000476837154 L 72.14900207519531 -1.6399999856948848 L 72.12699890136719 -1.9650000333786006 L 72.12000274658203 -2.2999999523162837 L 72.13400268554688 -2.719000101089477 L 72.1760025024414 -3.124000072479247 L 72.24500274658203 -3.515000104904174 L 72.34200286865234 -3.891000032424926 L 72.41278839111328 -4.09600019454956 L 72.46700286865234 -4.252999782562255 L 72.62000274658203 -4.5999999046325675 L 72.80400085449219 -4.938000202178954 L 73.01100158691406 -5.260000228881835 L 73.23999786376953 -5.565000057220458 L 73.49099731445312 -5.8530001640319815 L 73.72799682617188 -6.089131832122801 L 73.76399993896484 -6.124999999999998 L 74.05999755859375 -6.380000114440916 L 74.36900329589844 -6.6110000610351545 L 74.697998046875 -6.823999881744383 L 75.04499816894531 -7.019999980926512 L 75.41100311279297 -7.197999954223631 L 75.7760009765625 -7.34968852996826 L 75.7959976196289 -7.35799980163574 L 76.19999694824219 -7.499999999999998 L 76.6259994506836 -7.622000217437742 L 77.06199645996094 -7.722000122070311 L 77.51000213623047 -7.8000001907348615 L 77.8239974975586 -7.838309288024901 L 77.96900177001953 -7.8559999465942365 L 78.43900299072266 -7.888999938964842 L 78.91999816894531 -7.90000009536743 L 79.4219970703125 -7.893000125885008 L 79.87200164794922 -7.872288703918455 L 79.9000015258789 -7.870999813079832 L 80.3550033569336 -7.835000038146971 L 80.78700256347656 -7.783999919891356 L 81.19499969482422 -7.718999862670897 L 81.58000183105469 -7.639999866485594 L 81.91999816894531 -7.553333282470701 L 81.93699645996094 -7.548999786376951 L 82.27300262451172 -7.448999881744383 L 82.58999633789062 -7.340000152587889 L 82.88700103759766 -7.222000122070311 L 83.16300201416016 -7.096000194549559 L 83.41999816894531 -6.960000038146971 L 83.64900207519531 -6.809000015258787 L 83.85800170898438 -6.649000167846678 L 84.04499816894531 -6.4800000190734846 L 84.21099853515625 -6.302000045776365 M 70.30000305175781 -6.159999847412108 L 69.63200378417969 -6.159999847412108 L 69.08000183105469 -6.159999847412108 L 68.98699951171875 -6.157999992370604 L 68.89600372314453 -6.151000022888182 L 68.83808898925781 -6.14400005340576 L 68.80500030517578 -6.139999866485594 L 68.71600341796875 -6.124000072479246 L 68.62699890136719 -6.104000091552733 L 68.60800170898438 -6.098758697509764 L 68.54000091552734 -6.079999923706053 L 68.45500183105469 -6.057000160217283 L 68.37300109863281 -6.026999950408934 L 68.29499816894531 -5.989999771118163 L 68.22000122070312 -5.94700002670288 L 68.14800262451172 -5.896999835968017 L 68.08000183105469 -5.84000015258789 L 68.01599884033203 -5.769000053405761 L 67.95800018310547 -5.69099998474121 L 67.90499877929688 -5.605000019073485 L 67.85800170898438 -5.511000156402587 L 67.81600189208984 -5.4089999198913565 L 67.77999877929688 -5.300000190734862 L 67.7490005493164 -5.1729998588562 L 67.73953247070312 -5.119999885559081 L 67.7239990234375 -5.032999992370605 L 67.70500183105469 -4.880000114440917 L 67.69100189208984 -4.712999820709228 L 67.68299865722656 -4.532999992370605 L 67.68000030517578 -4.34000015258789 L 67.68000030517578 -4.09600019454956 L 67.68000030517578 1.1102230246251565e-16 L 67.68000030517578 4.09600019454956 L 67.68000030517578 6.499999999999998 L 67.66899871826172 6.958000183105467 L 67.63600158691406 7.40000009536743 L 67.58000183105469 7.824999809265135 L 67.50984191894531 8.19200038909912 L 67.50199890136719 8.23299980163574 L 67.4020004272461 8.624999999999998 L 67.27999877929688 8.999999999999998 L 67.13400268554688 9.362999916076658 L 66.96199798583984 9.706999778747557 L 66.76499938964844 10.02999973297119 L 66.54199981689453 10.333000183105467 L 66.29399871826172 10.616999626159666 L 66.0199966430664 10.880000114440916 L 65.72699737548828 11.130000114440916 L 65.53600311279297 11.267281532287596 L 65.40699768066406 11.359999656677244 L 65.05999755859375 11.569999694824217 L 64.68699645996094 11.760000228881834 L 64.28700256347656 11.93000030517578 L 63.86000061035156 12.079999923706051 L 63.40599822998047 12.201999664306637 L 62.99148178100586 12.28800010681152 L 62.92399978637695 12.302000045776364 L 62.415000915527344 12.380000114440914 L 61.87799835205078 12.43599987030029 L 61.439998626708984 12.461582183837887 L 61.3129997253418 12.468999862670895 L 60.720001220703125 12.479999542236325 L 60.130001068115234 12.470999717712399 L 59.560001373291016 12.442000389099118 L 59.0099983215332 12.395000457763668 L 58.47999954223633 12.329000473022457 L 58.23400115966797 12.28800010681152 L 57.970001220703125 12.244000434875485 L 57.47999954223633 12.14000034332275 L 57.34400177001953 12.103203773498532 L 57.018001556396484 12.01500034332275 L 56.58000183105469 11.866999626159666 L 56.165000915527344 11.694999694824217 L 55.77299880981445 11.499999999999998 L 55.404998779296875 11.281999588012694 L 55.060001373291016 11.039999961853026 L 54.74599838256836 10.774000167846678 L 54.45800018310547 10.48400020599365 L 54.19499969482422 10.170000076293944 L 53.95800018310547 9.831000328063963 L 53.74599838256836 9.468000411987303 L 53.560001373291016 9.079999923706053 L 53.4010009765625 8.666000366210936 L 53.270999908447266 8.22200012207031 L 53.26457977294922 8.19200038909912 L 53.16999816894531 7.749999999999998 L 53.097999572753906 7.249000072479246 L 53.05400085449219 6.718999862670897 L 53.040000915527344 6.159999847412108 L 53.040000915527344 1.1102230246251565e-16 L 53.040000915527344 -4.09600019454956 L 53.040000915527344 -4.460000038146972 L 53.0369987487793 -4.639999866485595 L 53.027000427246094 -4.807000160217284 L 53.0099983215332 -4.960000038146972 L 52.98699951171875 -5.0999999046325675 L 52.982276916503906 -5.119999885559081 L 52.957000732421875 -5.22700023651123 L 52.91999816894531 -5.34000015258789 L 52.87799835205078 -5.448999881744384 L 52.83100128173828 -5.548999786376952 L 52.779998779296875 -5.639999866485595 L 52.7239990234375 -5.722000122070312 L 52.66400146484375 -5.796000003814696 L 52.599998474121094 -5.860000133514403 L 52.53200149536133 -5.91099977493286 L 52.46200180053711 -5.955999851226806 L 52.38999938964844 -5.994999885559081 L 52.316001892089844 -6.028999805450438 L 52.23899841308594 -6.057000160217283 L 52.2239990234375 -6.061367034912108 L 52.15999984741211 -6.079999923706053 L 52.073001861572266 -6.104000091552733 L 51.98400115966797 -6.124000072479246 L 51.89500045776367 -6.139999866485594 L 51.861907958984375 -6.14400005340576 L 51.80400085449219 -6.151000022888182 L 51.7130012512207 -6.157999992370604 L 51.619998931884766 -6.159999847412108 L 51.20000076293945 -6.159999847412108 L 50.439998626708984 -6.159999847412108 L 50.439998626708984 -7.61999988555908 L 51.20000076293945 -7.61999988555908 L 53.24800109863281 -7.61999988555908 L 57.34400177001953 -7.61999988555908 L 59.391998291015625 -7.61999988555908 L 60.02000045776367 -7.61999988555908 L 60.02000045776367 -6.159999847412108 L 59.391998291015625 -6.159999847412108 L 58.84000015258789 -6.159999847412108 L 58.74700164794922 -6.157999992370604 L 58.65599822998047 -6.151000022888182 L 58.59809112548828 -6.14400005340576 L 58.564998626708984 -6.139999866485594 L 58.47600173950195 -6.124000072479246 L 58.387001037597656 -6.104000091552733 L 58.36800003051758 -6.098758697509764 L 58.29999923706055 -6.079999923706053 L 58.21500015258789 -6.057000160217283 L 58.132999420166016 -6.026999950408934 L 58.05500030517578 -5.989999771118163 L 57.97999954223633 -5.94700002670288 L 57.90800094604492 -5.896999835968017 L 57.84000015258789 -5.84000015258789 L 57.7760009765625 -5.769000053405761 L 57.71799850463867 -5.69099998474121 L 57.665000915527344 -5.605000019073485 L 57.61800003051758 -5.511000156402587 L 57.57600021362305 -5.4089999198913565 L 57.540000915527344 -5.300000190734862 L 57.50899887084961 -5.1729998588562 L 57.499534606933594 -5.119999885559081 L 57.48400115966797 -5.032999992370605 L 57.46500015258789 -4.880000114440917 L 57.45100021362305 -4.712999820709228 L 57.44300079345703 -4.532999992370605 L 57.439998626708984 -4.34000015258789 L 57.439998626708984 -4.09600019454956 L 57.439998626708984 1.1102230246251565e-16 L 57.439998626708984 6.40000009536743 L 57.448001861572266 6.776999950408934 L 57.47100067138672 7.132999897003172 L 57.5099983215332 7.469999790191649 L 57.56399917602539 7.78700017929077 L 57.63399887084961 8.083000183105467 L 57.667842864990234 8.19200038909912 L 57.720001220703125 8.359999656677244 L 57.82699966430664 8.612000465393065 L 57.946998596191406 8.84700012207031 L 58.08000183105469 9.064999580383299 L 58.22700119018555 9.267000198364256 L 58.387001037597656 9.451999664306639 L 58.560001373291016 9.61999988555908 L 58.74599838256836 9.772999763488768 L 58.944000244140625 9.911000251770018 L 59.154998779296875 10.034999847412108 L 59.37799835205078 10.14400005340576 L 59.612998962402344 10.239000320434569 L 59.616050720214844 10.239999771118162 L 59.86000061035156 10.319999694824217 L 60.11800003051758 10.38099956512451 L 60.387001037597656 10.430999755859373 L 60.665000915527344 10.470000267028807 L 60.952999114990234 10.498000144958494 L 61.25199890136719 10.513999938964842 L 61.439998626708984 10.517662048339842 L 61.560001373291016 10.52000045776367 L 61.86199951171875 10.513999938964842 L 62.15599822998047 10.49600028991699 L 62.439998626708984 10.465000152587889 L 62.715999603271484 10.421999931335447 L 62.981998443603516 10.366999626159666 L 63.2400016784668 10.300000190734862 L 63.40620803833008 10.239999771118162 L 63.48099899291992 10.213000297546385 L 63.70899963378906 10.111000061035154 L 63.92499923706055 9.99499988555908 L 64.12899780273438 9.864000320434569 L 64.32099914550781 9.718999862670897 L 64.5 9.560000419616697 L 64.66699981689453 9.385999679565428 L 64.81999969482422 9.196000099182127 L 64.95999908447266 8.989999771118162 L 65.08699798583984 8.76900005340576 L 65.19999694824219 8.531999588012694 L 65.30000305175781 8.27999973297119 L 65.33020782470703 8.19200038909912 L 65.39199829101562 8.012000083923338 L 65.46700286865234 7.729000091552733 L 65.5250015258789 7.429999828338621 L 65.53600311279297 7.347762107849119 L 65.56700134277344 7.116000175476072 L 65.59200286865234 6.7859997749328596 L 65.5999984741211 6.440000057220457 L 65.5999984741211 4.09600019454956 L 65.5999984741211 1.1102230246251565e-16 L 65.5999984741211 -4.09600019454956 L 65.5999984741211 -4.460000038146972 L 65.59700012207031 -4.633999824523925 L 65.58699798583984 -4.7979998588562 L 65.56999969482422 -4.949999809265136 L 65.5469970703125 -5.091000080108642 L 65.53600311279297 -5.138666629791259 L 65.51699829101562 -5.22100019454956 L 65.4800033569336 -5.34000015258789 L 65.44400024414062 -5.448999881744384 L 65.4020004272461 -5.548999786376952 L 65.359130859375 -5.631999969482421 L 65.3550033569336 -5.639999866485595 L 65.302001953125 -5.722000122070312 L 65.24400329589844 -5.796000003814696 L 65.18000030517578 -5.860000133514403 L 65.11199951171875 -5.91099977493286 L 65.04000091552734 -5.955999851226806 L 64.96499633789062 -5.994999885559081 L 64.88700103759766 -6.028999805450438 L 64.81183624267578 -6.054666519165037 L 64.80500030517578 -6.057000160217283 L 64.72000122070312 -6.079999923706053 L 64.63300323486328 -6.104000091552733 L 64.54399871826172 -6.124000072479246 L 64.51200103759766 -6.129752635955809 L 64.45500183105469 -6.139999866485594 L 64.42190551757812 -6.14400005340576 L 64.36399841308594 -6.151000022888182 L 64.27300262451172 -6.157999992370604 L 64.18000030517578 -6.159999847412108 L 63.487998962402344 -6.159999847412108 L 63.02000045776367 -6.159999847412108 L 63.02000045776367 -7.61999988555908 L 63.487998962402344 -7.61999988555908 L 65.53600311279297 -7.61999988555908 L 67.58399963378906 -7.61999988555908 L 69.63200378417969 -7.61999988555908 L 70.30000305175781 -7.61999988555908 L 70.30000305175781 -6.159999847412108 M 42.439998626708984 -2.220000028610229 L 40.959999084472656 -2.220000028610229 L 40.73619842529297 -2.220000028610229 L 40.69059753417969 -2.220000028610229 L 40.63999938964844 -2.220000028610229 L 40.439998626708984 -3.940000057220458 L 40.417999267578125 -4.091000080108642 L 40.41714859008789 -4.09600019454956 L 40.393001556396484 -4.237999916076659 L 40.3650016784668 -4.380000114440917 L 40.33300018310547 -4.518000125885009 L 40.29800033569336 -4.651000022888183 L 40.2599983215332 -4.780000209808349 L 40.215999603271484 -4.896999835968017 L 40.1619987487793 -5.006999969482421 L 40.099998474121094 -5.110000133514403 L 40.092681884765625 -5.119999885559081 L 40.02899932861328 -5.206999778747558 L 39.94900131225586 -5.296999931335448 L 39.86000061035156 -5.380000114440917 L 39.76900100708008 -5.462999820709228 L 39.66899871826172 -5.5399999618530265 L 39.560001373291016 -5.610000133514403 L 39.44200134277344 -5.6729998588562 L 39.316001892089844 -5.730000019073485 L 39.18000030517578 -5.780000209808349 L 39.034000396728516 -5.822999954223632 L 38.9119987487793 -5.850371837615966 L 38.87799835205078 -5.857999801635741 L 38.709999084472656 -5.885000228881835 L 38.53099822998047 -5.903999805450439 L 38.340999603271484 -5.915999889373778 L 38.13999938964844 -5.920000076293944 L 36.86399841308594 -5.920000076293944 L 35.91999816894531 -5.920000076293944 L 35.91999816894531 1.1102230246251565e-16 L 35.91999816894531 8.19200038909912 L 35.91999816894531 8.920000076293944 L 35.92300033569336 9.112999916076658 L 35.930999755859375 9.29300022125244 L 35.94499969482422 9.46000003814697 L 35.9640007019043 9.612999916076658 L 35.98899841308594 9.753000259399412 L 36.02000045776367 9.880000114440916 L 36.055999755859375 9.989000320434569 L 36.097999572753906 10.090999603271483 L 36.14500045776367 10.185000419616697 L 36.17889404296875 10.239999771118162 L 36.198001861572266 10.270999908447264 L 36.25600051879883 10.348999977111815 L 36.31999969482422 10.420000076293944 L 36.38800048828125 10.477000236511229 L 36.459999084472656 10.527000427246092 L 36.53499984741211 10.569999694824217 L 36.612998962402344 10.607000350952147 L 36.69499969482422 10.637000083923338 L 36.779998779296875 10.659999847412108 L 36.86399841308594 10.677182197570799 L 36.86800003051758 10.678000450134276 L 36.95800018310547 10.692999839782713 L 37.04999923706055 10.704999923706053 L 37.14400100708008 10.713000297546385 L 37.24100112915039 10.718000411987303 L 37.34000015258789 10.720000267028807 L 38.52000045776367 10.720000267028807 L 38.52000045776367 12.199999809265133 L 36.86399841308594 12.199999809265133 L 32.768001556396484 12.199999809265133 L 30.719999313354492 12.199999809265133 L 28.920000076293945 12.199999809265133 L 28.920000076293945 11.13642883300781 L 28.920000076293945 11.015909194946287 L 28.920000076293945 10.94734764099121 L 28.920000076293945 10.890052795410154 L 28.920000076293945 10.824591636657713 L 28.920000076293945 10.78001022338867 L 28.920000076293945 10.742094993591307 L 28.920000076293945 10.720000267028807 L 30.079999923706055 10.720000267028807 L 30.184999465942383 10.718000411987303 L 30.28700065612793 10.713000297546385 L 30.385000228881836 10.704999923706053 L 30.479999542236328 10.692999839782713 L 30.57200050354004 10.678000450134276 L 30.65999984741211 10.659999847412108 L 30.719999313354492 10.643571853637694 L 30.743999481201172 10.637000083923338 L 30.823999404907227 10.607000350952147 L 30.899999618530273 10.569999694824217 L 30.97100067138672 10.527000427246092 L 31.038000106811523 10.477000236511229 L 31.100000381469727 10.420000076293944 L 31.163999557495117 10.348999977111815 L 31.222000122070312 10.270999908447264 L 31.241104125976562 10.239999771118162 L 31.274999618530273 10.185000419616697 L 31.32200050354004 10.090999603271483 L 31.36400032043457 9.989000320434569 L 31.399999618530273 9.880000114440916 L 31.437000274658203 9.753000259399412 L 31.466999053955078 9.612999916076658 L 31.489999771118164 9.46000003814697 L 31.506999969482422 9.29300022125244 L 31.517000198364258 9.112999916076658 L 31.520000457763672 8.920000076293944 L 31.520000457763672 8.19200038909912 L 31.520000457763672 1.1102230246251565e-16 L 31.520000457763672 -5.920000076293944 L 29.280000686645508 -5.920000076293944 L 29.07900047302246 -5.915999889373778 L 28.888999938964844 -5.903999805450439 L 28.709999084472656 -5.885000228881835 L 28.672000885009766 -5.878892898559569 L 28.54199981689453 -5.857999801635741 L 28.38599967956543 -5.822999954223632 L 28.239999771118164 -5.780000209808349 L 28.104000091552734 -5.730000019073485 L 27.97800064086914 -5.6729998588562 L 27.860000610351562 -5.610000133514403 L 27.750999450683594 -5.5399999618530265 L 27.650999069213867 -5.462999820709228 L 27.559999465942383 -5.380000114440917 L 27.47100067138672 -5.296999931335448 L 27.391000747680664 -5.206999778747558 L 27.327320098876953 -5.119999885559081 L 27.31999969482422 -5.110000133514403 L 27.257999420166016 -5.006999969482421 L 27.20400047302246 -4.896999835968017 L 27.15999984741211 -4.780000209808349 L 27.115999221801758 -4.651000022888183 L 27.077999114990234 -4.518000125885009 L 27.045000076293945 -4.380000114440917 L 27.01799964904785 -4.237999916076659 L 26.996747970581055 -4.09600019454956 L 26.996000289916992 -4.091000080108642 L 26.979999542236328 -3.940000057220458 L 26.780000686645508 -2.220000028610229 L 24.979999542236328 -2.220000028610229 L 24.979999542236328 -4.09600019454956 L 24.979999542236328 -7.61999988555908 L 26.624000549316406 -7.61999988555908 L 28.672000885009766 -7.61999988555908 L 32.768001556396484 -7.61999988555908 L 36.86399841308594 -7.61999988555908 L 38.9119987487793 -7.61999988555908 L 40.959999084472656 -7.61999988555908 L 42.439998626708984 -7.61999988555908 L 42.439998626708984 -2.220000028610229 M 24.219999313354492 -6.159999847412108 L 23 -6.159999847412108 L 22.906999588012695 -6.157999992370604 L 22.81599998474121 -6.151000022888182 L 22.725000381469727 -6.139999866485594 L 22.63599967956543 -6.124000072479246 L 22.547000885009766 -6.104000091552733 L 22.527999877929688 -6.098758697509764 L 22.459999084472656 -6.079999923706053 L 22.375 -6.057000160217283 L 22.292999267578125 -6.026999950408934 L 22.21500015258789 -5.989999771118163 L 22.139999389648438 -5.94700002670288 L 22.06800079345703 -5.896999835968017 L 22 -5.84000015258789 L 21.93600082397461 -5.769000053405761 L 21.878000259399414 -5.69099998474121 L 21.825000762939453 -5.605000019073485 L 21.777999877929688 -5.511000156402587 L 21.736000061035156 -5.4089999198913565 L 21.700000762939453 -5.300000190734862 L 21.66900062561035 -5.1729998588562 L 21.659536361694336 -5.119999885559081 L 21.643999099731445 -5.032999992370605 L 21.625 -4.880000114440917 L 21.611000061035156 -4.712999820709228 L 21.60300064086914 -4.532999992370605 L 21.600000381469727 -4.34000015258789 L 21.600000381469727 -4.09600019454956 L 21.600000381469727 1.1102230246251565e-16 L 21.600000381469727 6.499999999999998 L 21.589000701904297 6.958000183105467 L 21.555999755859375 7.40000009536743 L 21.5 7.824999809265135 L 21.429838180541992 8.19200038909912 L 21.422000885009766 8.23299980163574 L 21.32200050354004 8.624999999999998 L 21.200000762939453 8.999999999999998 L 21.054000854492188 9.362999916076658 L 20.881999969482422 9.706999778747557 L 20.684999465942383 10.02999973297119 L 20.479999542236328 10.308542251586912 L 20.461999893188477 10.333000183105467 L 20.214000701904297 10.616999626159666 L 19.940000534057617 10.880000114440916 L 19.64699935913086 11.130000114440916 L 19.32699966430664 11.359999656677244 L 18.979999542236328 11.569999694824217 L 18.60700035095215 11.760000228881834 L 18.207000732421875 11.93000030517578 L 17.780000686645508 12.079999923706051 L 17.326000213623047 12.201999664306637 L 16.911479949951172 12.28800010681152 L 16.8439998626709 12.302000045776364 L 16.384000778198242 12.372490882873532 L 16.334999084472656 12.380000114440914 L 15.79800033569336 12.43599987030029 L 15.232999801635742 12.468999862670895 L 14.640000343322754 12.479999542236325 L 14.050000190734863 12.470999717712399 L 13.479999542236328 12.442000389099118 L 12.930000305175781 12.395000457763668 L 12.399999618530273 12.329000473022457 L 12.288000106811523 12.310333251953121 L 12.154000282287598 12.28800010681152 L 11.890000343322754 12.244000434875485 L 11.399999618530273 12.14000034332275 L 10.937999725341797 12.01500034332275 L 10.5 11.866999626159666 L 10.085000038146973 11.694999694824217 L 9.692999839782715 11.499999999999998 L 9.324999809265137 11.281999588012694 L 8.979999542236328 11.039999961853026 L 8.666000366210938 10.774000167846678 L 8.378000259399414 10.48400020599365 L 8.192000389099121 10.261931419372557 L 8.114999771118164 10.170000076293944 L 7.877999782562256 9.831000328063963 L 7.665999889373779 9.468000411987303 L 7.480000019073486 9.079999923706053 L 7.321000099182129 8.666000366210936 L 7.190999984741211 8.22200012207031 L 7.184580326080322 8.19200038909912 L 7.090000152587891 7.749999999999998 L 7.01800012588501 7.249000072479246 L 6.973999977111816 6.718999862670897 L 6.960000038146973 6.159999847412108 L 6.960000038146973 4.09600019454956 L 6.960000038146973 1.1102230246251565e-16 L 6.960000038146973 -4.09600019454956 L 6.960000038146973 -4.460000038146972 L 6.956999778747559 -4.639999866485595 L 6.947000026702881 -4.807000160217284 L 6.929999828338623 -4.960000038146972 L 6.9070000648498535 -5.0999999046325675 L 6.902275562286377 -5.119999885559081 L 6.876999855041504 -5.22700023651123 L 6.840000152587891 -5.34000015258789 L 6.797999858856201 -5.448999881744384 L 6.750999927520752 -5.548999786376952 L 6.699999809265137 -5.639999866485595 L 6.644000053405762 -5.722000122070312 L 6.584000110626221 -5.796000003814696 L 6.519999980926514 -5.860000133514403 L 6.452000141143799 -5.91099977493286 L 6.381999969482422 -5.955999851226806 L 6.309999942779541 -5.994999885559081 L 6.236000061035156 -6.028999805450438 L 6.158999919891357 -6.057000160217283 L 6.144000053405762 -6.061367034912108 L 6.079999923706055 -6.079999923706053 L 5.993000030517578 -6.104000091552733 L 5.9039998054504395 -6.124000072479246 L 5.815000057220459 -6.139999866485594 L 5.723999977111816 -6.151000022888182 L 5.632999897003174 -6.157999992370604 L 5.539999961853027 -6.159999847412108 L 4.360000133514404 -6.159999847412108 L 4.360000133514404 -7.61999988555908 L 6.144000053405762 -7.61999988555908 L 8.192000389099121 -7.61999988555908 L 10.239999771118164 -7.61999988555908 L 12.288000106811523 -7.61999988555908 L 13.9399995803833 -7.61999988555908 L 13.9399995803833 -6.554482936859129 L 13.9399995803833 -6.470966339111326 L 13.9399995803833 -6.401573181152342 L 13.9399995803833 -6.315879344940184 L 13.9399995803833 -6.255923271179197 L 13.9399995803833 -6.1853761672973615 L 13.9399995803833 -6.159999847412108 L 12.760000228881836 -6.159999847412108 L 12.666999816894531 -6.157999992370604 L 12.576000213623047 -6.151000022888182 L 12.484999656677246 -6.139999866485594 L 12.395999908447266 -6.124000072479246 L 12.307000160217285 -6.104000091552733 L 12.288000106811523 -6.098758697509764 L 12.220000267028809 -6.079999923706053 L 12.135000228881836 -6.057000160217283 L 12.053000450134277 -6.026999950408934 L 11.975000381469727 -5.989999771118163 L 11.899999618530273 -5.94700002670288 L 11.82800006866455 -5.896999835968017 L 11.760000228881836 -5.84000015258789 L 11.696000099182129 -5.769000053405761 L 11.637999534606934 -5.69099998474121 L 11.585000038146973 -5.605000019073485 L 11.538000106811523 -5.511000156402587 L 11.496000289916992 -5.4089999198913565 L 11.460000038146973 -5.300000190734862 L 11.428999900817871 -5.1729998588562 L 11.419535636901855 -5.119999885559081 L 11.404000282287598 -5.032999992370605 L 11.385000228881836 -4.880000114440917 L 11.371000289916992 -4.712999820709228 L 11.36299991607666 -4.532999992370605 L 11.359999656677246 -4.34000015258789 L 11.359999656677246 -4.09600019454956 L 11.359999656677246 1.1102230246251565e-16 L 11.359999656677246 6.40000009536743 L 11.368000030517578 6.776999950408934 L 11.390999794006348 7.132999897003172 L 11.430000305175781 7.469999790191649 L 11.484000205993652 7.78700017929077 L 11.553999900817871 8.083000183105467 L 11.587841033935547 8.19200038909912 L 11.640000343322754 8.359999656677244 L 11.746999740600586 8.612000465393065 L 11.866999626159668 8.84700012207031 L 12 9.064999580383299 L 12.147000312805176 9.267000198364256 L 12.288000106811523 9.430030822753904 L 12.307000160217285 9.451999664306639 L 12.479999542236328 9.61999988555908 L 12.666000366210938 9.772999763488768 L 12.86400032043457 9.911000251770018 L 13.074999809265137 10.034999847412108 L 13.29800033569336 10.14400005340576 L 13.532999992370605 10.239000320434569 L 13.536049842834473 10.239999771118162 L 13.779999732971191 10.319999694824217 L 14.038000106811523 10.38099956512451 L 14.307000160217285 10.430999755859373 L 14.585000038146973 10.470000267028807 L 14.873000144958496 10.498000144958494 L 15.17199993133545 10.513999938964842 L 15.479999542236328 10.52000045776367 L 15.781999588012695 10.513999938964842 L 16.076000213623047 10.49600028991699 L 16.360000610351562 10.465000152587889 L 16.384000778198242 10.46126079559326 L 16.63599967956543 10.421999931335447 L 16.902000427246094 10.366999626159666 L 17.15999984741211 10.300000190734862 L 17.32620620727539 10.239999771118162 L 17.400999069213867 10.213000297546385 L 17.628999710083008 10.111000061035154 L 17.844999313354492 9.99499988555908 L 18.048999786376953 9.864000320434569 L 18.240999221801758 9.718999862670897 L 18.420000076293945 9.560000419616697 L 18.586999893188477 9.385999679565428 L 18.739999771118164 9.196000099182127 L 18.8799991607666 8.989999771118162 L 19.006999969482422 8.76900005340576 L 19.1200008392334 8.531999588012694 L 19.219999313354492 8.27999973297119 L 19.25020980834961 8.19200038909912 L 19.312000274658203 8.012000083923338 L 19.386999130249023 7.729000091552733 L 19.44499969482422 7.429999828338621 L 19.48699951171875 7.116000175476072 L 19.511999130249023 6.7859997749328596 L 19.520000457763672 6.440000057220457 L 19.520000457763672 1.1102230246251565e-16 L 19.520000457763672 -4.09600019454956 L 19.520000457763672 -4.460000038146972 L 19.517000198364258 -4.633999824523925 L 19.506999969482422 -4.7979998588562 L 19.489999771118164 -4.949999809265136 L 19.466999053955078 -5.091000080108642 L 19.460308074951172 -5.119999885559081 L 19.45599937438965 -5.138666629791259 L 19.437000274658203 -5.22100019454956 L 19.399999618530273 -5.34000015258789 L 19.36400032043457 -5.448999881744384 L 19.32200050354004 -5.548999786376952 L 19.279130935668945 -5.631999969482421 L 19.274999618530273 -5.639999866485595 L 19.222000122070312 -5.722000122070312 L 19.163999557495117 -5.796000003814696 L 19.100000381469727 -5.860000133514403 L 19.031999588012695 -5.91099977493286 L 18.959999084472656 -5.955999851226806 L 18.885000228881836 -5.994999885559081 L 18.80699920654297 -6.028999805450438 L 18.73183250427246 -6.054666519165037 L 18.725000381469727 -6.057000160217283 L 18.639999389648438 -6.079999923706053 L 18.55299949645996 -6.104000091552733 L 18.464000701904297 -6.124000072479246 L 18.43199920654297 -6.129752635955809 L 18.375 -6.139999866485594 L 18.284000396728516 -6.151000022888182 L 18.19300079345703 -6.157999992370604 L 18.100000381469727 -6.159999847412108 L 16.940000534057617 -6.159999847412108 L 16.940000534057617 -7.61999988555908 L 18.43199920654297 -7.61999988555908 L 20.479999542236328 -7.61999988555908 L 22.527999877929688 -7.61999988555908 L 24.219999313354492 -7.61999988555908 L 24.219999313354492 -6.565517425537108 L 24.219999313354492 -6.4799551963806135 L 24.219999313354492 -6.408763885498045 L 24.219999313354492 -6.3207144737243635 L 24.219999313354492 -6.258999824523924 L 24.219999313354492 -6.18623638153076 L 24.219999313354492 -6.159999847412108 M 0.3240000009536743 9.218000411987303 L 0 9.607812881469725 L -0.05999999865889549 9.68000030517578 L -0.4749999940395355 10.109999656677244 L -0.9200000166893005 10.50699996948242 L -1.3949999809265137 10.86999988555908 L -1.899999976158142 11.199999809265135 L -2.434999942779541 11.496999740600584 L -3 11.760000228881834 L -3.6010000705718994 11.979999542236326 L -4.0960001945495605 12.121878623962399 L -4.229000091552734 12.159999847412106 L -4.828771591186523 12.28800010681152 L -4.885000228881836 12.30000019073486 L -5.568999767303467 12.39999961853027 L -6.281000137329102 12.460000038146969 L -7.019999980926514 12.479999542236325 L -7.790999889373779 12.460000038146969 L -8.192000389099121 12.427398681640621 L -8.529000282287598 12.39999961853027 L -9.234999656677246 12.30000019073486 L -9.292771339416504 12.28800010681152 L -9.909000396728516 12.159999847412106 L -10.550999641418457 11.979999542236326 L -11.15999984741211 11.760000228881834 L -11.736000061035156 11.496999740600584 L -12.277999877929688 11.199999809265135 L -12.288000106811523 11.193490982055662 L -12.78499984741211 10.86999988555908 L -13.258000373840332 10.50699996948242 L -13.696000099182129 10.109999656677244 L -14.100000381469727 9.68000030517578 L -14.470999717712402 9.218000411987303 L -14.809000015258789 8.727000236511229 L -15.114999771118164 8.204999923706053 L -15.121453285217285 8.19200038909912 L -15.388999938964844 7.652999877929686 L -15.630999565124512 7.072000026702879 L -15.84000015258789 6.460000038146971 L -16.017000198364258 5.81599998474121 L -16.16200065612793 5.149000167846679 L -16.274999618530273 4.460000038146972 L -16.316469192504883 4.09600019454956 L -16.356000900268555 3.749000072479247 L -16.384000778198242 3.3214166164398184 L -16.40399932861328 3.016000032424926 L -16.420000076293945 2.2599999904632564 L -16.40399932861328 1.504999995231628 L -16.384000778198242 1.2000000476837158 L -16.356000900268555 0.7730000019073485 L -16.274999618530273 0.0649999976158143 L -16.2642765045166 1.1102230246251565e-16 L -16.16200065612793 -0.6200000047683714 L -16.017000198364258 -1.2819999456405635 L -15.84000015258789 -1.9199999570846553 L -15.630999565124512 -2.532000064849853 L -15.388999938964844 -3.1129999160766593 L -15.114999771118164 -3.6649999618530265 L -14.809000015258789 -4.186999797821044 L -14.470999717712402 -4.677999973297118 L -14.100000381469727 -5.139999866485595 L -13.6899995803833 -5.563000202178954 L -13.246999740600586 -5.95300006866455 L -12.770000457763672 -6.309999942779539 L -12.288000106811523 -6.615266799926756 L -12.260000228881836 -6.632999897003172 L -11.717000007629395 -6.922999858856199 L -11.140000343322754 -7.179999828338621 L -10.53600025177002 -7.4060001373291 L -10.239999771118164 -7.491562366485594 L -9.895999908447266 -7.591000080108641 L -9.220000267028809 -7.7350001335144025 L -8.508999824523926 -7.837999820709227 L -8.192000389099121 -7.863886356353758 L -7.76200008392334 -7.899000167846678 L -6.980000019073486 -7.9200000762939435 L -6.247000217437744 -7.899000167846678 L -6.144000053405762 -7.8900880813598615 L -5.541999816894531 -7.837999820709227 L -4.864999771118164 -7.7350001335144025 L -4.216000080108643 -7.591000080108641 L -4.0960001945495605 -7.555308818817137 L -3.5940001010894775 -7.4060001373291 L -3 -7.179999828338621 L -2.434999942779541 -6.922999858856199 L -1.899999976158142 -6.631000041961668 L -1.3949999809265137 -6.304999828338621 L -0.9200000166893005 -5.943999767303466 L -0.4749999940395355 -5.548999786376952 L -0.05999999865889549 -5.119999885559081 L 1.0101112476771051e-15 -5.047968864440917 L 0.3240000009536743 -4.6589999198913565 L 0.6759999990463257 -4.1690001487731925 L 0.9950000047683716 -3.6500000953674308 L 1.281999945640564 -3.1019999980926505 L 1.5369999408721924 -2.526000022888183 L 1.7599999904632568 -1.9199999570846553 L 1.9490000009536743 -1.2810000181198116 L 2.1040000915527344 -0.6179999709129331 L 2.21268892288208 1.1102230246251565e-16 L 2.2249999046325684 0.07000000029802332 L 2.311000108718872 0.7820000052452086 L 2.36299991607666 1.5190000534057613 L 2.380000114440918 2.27999997138977 L 2.36299991607666 3.0350000858306876 L 2.311000108718872 3.766999959945678 L 2.2710366249084473 4.09600019454956 L 2.2249999046325684 4.4749999046325675 L 2.1040000915527344 5.1599998474121085 L 1.9490000009536743 5.82200002670288 L 1.7599999904632568 6.460000038146971 L 1.5369999408721924 7.072000026702879 L 1.281999945640564 7.652999877929686 L 1.0017590522766113 8.19200038909912 L 0.9950000047683716 8.204999923706053 L 0.6759999990463257 8.727000236511229 L 0.3240000009536743 9.218000411987303 M -20.375 -0.3249999880790709 L -20.479999542236328 -0.16109755635261522 L -20.49799919128418 -0.13300000131130205 L -20.597198486328125 1.1102230246251565e-16 L -20.632999420166016 0.04800000041723261 L -20.780000686645508 0.21999999880790716 L -20.937999725341797 0.37700000405311584 L -21.10700035095215 0.5270000100135803 L -21.28499984741211 0.6700000166893005 L -21.472999572753906 0.8069999814033507 L -21.672000885009766 0.9369999766349791 L -21.8799991607666 1.059999942779541 L -22.097999572753906 1.1770000457763672 L -22.323999404907227 1.2869999408721924 L -22.527999877929688 1.376033902168274 L -22.559999465942383 1.3899999856948853 L -22.804000854492188 1.4869999885559082 L -23.058000564575195 1.5770000219345088 L -23.31999969482422 1.6599999666213985 L -23.31999969482422 1.7584114074707027 L -23.31999969482422 1.7866290807723995 L -23.31999969482422 1.7999999523162837 L -22.999000549316406 1.8849999904632564 L -22.68899917602539 1.9800000190734859 L -22.527999877929688 2.0365383625030513 L -22.495361328125 2.04800009727478 L -22.389999389648438 2.085000038146972 L -22.101999282836914 2.2000000476837154 L -21.826000213623047 2.3250000476837154 L -21.559999465942383 2.460000038146972 L -21.298999786376953 2.611000061035156 L -21.051000595092773 2.770999908447265 L -20.815000534057617 2.9400000572204585 L -20.590999603271484 3.1180000305175772 L -20.479999542236328 3.2153868675231925 L -20.378999710083008 3.30399990081787 L -20.18000030517578 3.499999999999999 L -19.993999481201172 3.7119998931884757 L -19.82200050354004 3.936000108718871 L -19.714649200439453 4.09600019454956 L -19.665000915527344 4.170000076293944 L -19.52199935913086 4.415999889373778 L -19.393999099731445 4.671999931335448 L -19.280000686645508 4.940000057220458 L -19.18199920654297 5.2189998626708975 L -19.101999282836914 5.508999824523925 L -19.040000915527344 5.80999994277954 L -18.996000289916992 6.122000217437742 L -18.9689998626709 6.446000099182127 L -18.959999084472656 6.780000209808348 L -19.016000747680664 7.653999805450438 L -19.128055572509766 8.19200038909912 L -19.18199920654297 8.451000213623045 L -19.459999084472656 9.170000076293944 L -19.849000930786133 9.810999870300291 L -20.349000930786133 10.373999595642088 L -20.479999542236328 10.478199958801268 L -20.959999084472656 10.859999656677244 L -21.680999755859375 11.26900005340576 L -22.51099967956543 11.604000091552733 L -23.450000762939453 11.864999771118162 L -24.492576599121094 12.0500373840332 L -24.49799919128418 12.050999641418453 L -24.576000213623047 12.058557510375973 L -25.65399932861328 12.16300010681152 L -26.920000076293945 12.199999809265133 L -27.45548439025879 12.199999809265133 L -28.05923080444336 12.199999809265133 L -28.741554260253906 12.199999809265133 L -29.647205352783203 12.199999809265133 L -30.794864654541016 12.199999809265133 L -32.55049133300781 12.199999809265133 L -32.768001556396484 12.199999809265133 L -34.816001892089844 12.199999809265133 L -35.880001068115234 12.199999809265133 L -35.880001068115234 10.720000267028807 L -34.816001892089844 10.720000267028807 L -34.7400016784668 10.720000267028807 L -34.6349983215332 10.718000411987303 L -34.53300094604492 10.713000297546385 L -34.435001373291016 10.704999923706053 L -34.34000015258789 10.692999839782713 L -34.24800109863281 10.678000450134276 L -34.15999984741211 10.659999847412108 L -34.07600021362305 10.637000083923338 L -33.99599838256836 10.607000350952147 L -33.91999816894531 10.569999694824217 L -33.8489990234375 10.527000427246092 L -33.79199981689453 10.484462738037108 L -33.78200149536133 10.477000236511229 L -33.720001220703125 10.420000076293944 L -33.65599822998047 10.348999977111815 L -33.59600067138672 10.270999908447264 L -33.57581329345703 10.239999771118162 L -33.540000915527344 10.185000419616697 L -33.48899841308594 10.090999603271483 L -33.44200134277344 9.989000320434569 L -33.400001525878906 9.880000114440916 L -33.362998962402344 9.753000259399412 L -33.33300018310547 9.612999916076658 L -33.310001373291016 9.46000003814697 L -33.292999267578125 9.29300022125244 L -33.28300094604492 9.112999916076658 L -33.279998779296875 8.920000076293944 L -33.279998779296875 8.19200038909912 L -33.279998779296875 1.1102230246251565e-16 L -33.279998779296875 -4.09600019454956 L -33.279998779296875 -4.360000133514403 L -33.28300094604492 -4.540999889373778 L -33.292999267578125 -4.70900011062622 L -33.310001373291016 -4.864999771118163 L -33.33300018310547 -5.008999824523925 L -33.35822677612305 -5.119999885559081 L -33.362998962402344 -5.140999794006347 L -33.400001525878906 -5.260000228881835 L -33.44200134277344 -5.374999999999999 L -33.48899841308594 -5.480000019073485 L -33.540000915527344 -5.574999809265136 L -33.59600067138672 -5.6599998474121085 L -33.65599822998047 -5.735000133514403 L -33.720001220703125 -5.800000190734862 L -33.78799819946289 -5.862999916076659 L -33.79199981689453 -5.866055488586425 L -33.86000061035156 -5.9180002212524405 L -33.935001373291016 -5.96500015258789 L -34.01300048828125 -6.004000186920164 L -34.095001220703125 -6.0359997749328596 L -34.18000030517578 -6.059999942779539 L -34.268001556396484 -6.084000110626219 L -34.358001708984375 -6.104000091552733 L -34.45000076293945 -6.11999988555908 L -34.54399871826172 -6.131000041961668 L -34.64099884033203 -6.13800001144409 L -34.7400016784668 -6.139999866485594 L -34.816001892089844 -6.139999866485594 L -35.880001068115234 -6.139999866485594 L -35.880001068115234 -7.61999988555908 L -34.816001892089844 -7.61999988555908 L -32.768001556396484 -7.61999988555908 L -28.672000885009766 -7.61999988555908 L -27.780000686645508 -7.61999988555908 L -26.624000549316406 -7.588953971862791 L -26.513999938964844 -7.585999965667723 L -25.357999801635742 -7.484000205993651 L -24.576000213623047 -7.357894897460936 L -24.309999465942383 -7.315000057220457 L -23.371000289916992 -7.078000068664549 L -22.541000366210938 -6.772999763488768 L -21.81999969482422 -6.40000009536743 L -21.208999633789062 -5.954999923706054 L -20.708999633789062 -5.433000087738036 L -20.479999542236328 -5.0809640884399405 L -20.31999969482422 -4.835000038146972 L -20.04199981689453 -4.1599998474121085 L -19.875999450683594 -3.4079999923706046 L -19.81999969482422 -2.5799999237060542 L -19.82699966430664 -2.2739999294281 L -19.849000930786133 -1.9819999933242793 L -19.885000228881836 -1.7050000429153438 L -19.93600082397461 -1.442000031471252 L -20.000999450683594 -1.1940000057220455 L -20.079999923706055 -0.9599999785423275 L -20.166000366210938 -0.7379999756813047 L -20.263999938964844 -0.5270000100135801 L -20.375 -0.3249999880790709 M -45.060001373291016 -7.61999988555908 L -45.055999755859375 -7.608717441558836 L -42.3585319519043 1.1102230246251565e-16 L -40.959999084472656 3.9448275566101065 L -39.45427703857422 8.19200038909912 L -39.2599983215332 8.739999771118162 L -39.1870002746582 8.928000450134276 L -39.112998962402344 9.104000091552733 L -39.040000915527344 9.27000045776367 L -38.96699905395508 9.423999786376951 L -38.893001556396484 9.567999839782713 L -38.81999969482422 9.699999809265135 L -38.74599838256836 9.828000068664549 L -38.66899871826172 9.94699954986572 L -38.59000015258789 10.05500030517578 L -38.50899887084961 10.152999877929686 L -38.42786407470703 10.239999771118162 L -38.42599868774414 10.241999626159666 L -38.34000015258789 10.319999694824217 L -38.25199890136719 10.390000343322752 L -38.1619987487793 10.453000068664549 L -38.06999969482422 10.510000228881834 L -37.97600173950195 10.560000419616697 L -37.87900161743164 10.602999687194822 L -37.779998779296875 10.640000343322752 L -37.67900085449219 10.663999557495115 L -37.577999114990234 10.684000015258787 L -37.474998474121094 10.699999809265135 L -37.37099838256836 10.711000442504881 L -37.26599884033203 10.718000411987303 L -37.15999984741211 10.720000267028807 L -36.86399841308594 10.720000267028807 L -36.63999938964844 10.720000267028807 L -36.63999938964844 12.199999809265133 L -36.86399841308594 12.199999809265133 L -38.9119987487793 12.199999809265133 L -40.959999084472656 12.199999809265133 L -43.007999420166016 12.199999809265133 L -45.055999755859375 12.199999809265133 L -45.79999923706055 12.199999809265133 L -45.79999923706055 10.720000267028807 L -45.055999755859375 10.720000267028807 L -44.720001220703125 10.720000267028807 L -44.65299987792969 10.718000411987303 L -44.58399963378906 10.713000297546385 L -44.51499938964844 10.704999923706053 L -44.444000244140625 10.692999839782713 L -44.37300109863281 10.678000450134276 L -44.29999923706055 10.659999847412108 L -44.22800064086914 10.637999534606932 L -44.15999984741211 10.612999916076658 L -44.095001220703125 10.58500003814697 L -44.03300094604492 10.553000450134276 L -44.03200149536133 10.55239677429199 L -43.974998474121094 10.51799964904785 L -43.91999816894531 10.479999542236326 L -43.86199951171875 10.437000274658201 L -43.808998107910156 10.388999938964842 L -43.7599983215332 10.33500003814697 L -43.715999603271484 10.276000022888182 L -43.69384765625 10.239999771118162 L -43.67599868774414 10.211000442504881 L -43.63999938964844 10.140000343322752 L -43.60900115966797 10.071000099182127 L -43.58399963378906 9.998000144958494 L -43.564998626708984 9.920000076293944 L -43.55099868774414 9.838000297546385 L -43.542999267578125 9.751000404357908 L -43.540000915527344 9.659999847412108 L -43.54199981689453 9.546999931335447 L -43.54899978637695 9.435999870300291 L -43.560001373291016 9.324999809265135 L -43.57600021362305 9.215999603271483 L -43.59600067138672 9.107000350952147 L -43.61918640136719 9.003623962402342 L -43.619998931884766 8.999999999999998 L -43.64699935913086 8.902000427246092 L -43.67300033569336 8.807000160217283 L -43.69805145263672 8.72163963317871 L -43.70000076293945 8.715000152587889 L -43.72700119018555 8.626999855041502 L -43.75299835205078 8.54199981689453 L -43.779998779296875 8.46000003814697 L -43.874473571777344 8.19200038909912 L -44.7599983215332 5.679999828338622 L -49.152000427246094 5.679999828338622 L -51.49310302734375 5.679999828338622 L -51.5 5.679999828338622 L -52.29999923706055 8.079999923706053 L -52.33765411376953 8.19200038909912 L -52.3390007019043 8.196000099182127 L -52.37799835205078 8.317999839782713 L -52.415000915527344 8.444999694824217 L -52.44468688964844 8.554676055908201 L -52.45100021362305 8.578000068664549 L -52.486000061035156 8.715999603271483 L -52.52000045776367 8.859999656677244 L -52.55699920654297 9.010000228881834 L -52.58700180053711 9.152999877929686 L -52.59757614135742 9.215999603271483 L -52.61000061035156 9.289999961853026 L -52.62699890136719 9.420000076293944 L -52.637001037597656 9.54300022125244 L -52.63999938964844 9.659999847412108 L -52.637001037597656 9.751000404357908 L -52.62900161743164 9.838000297546385 L -52.6150016784668 9.920000076293944 L -52.59600067138672 9.998000144958494 L -52.57099914550781 10.071000099182127 L -52.540000915527344 10.140000343322752 L -52.49800109863281 10.20400047302246 L -52.47100067138672 10.239999771118162 L -52.452999114990234 10.263999938964842 L -52.404998779296875 10.319999694824217 L -52.35300064086914 10.37100028991699 L -52.34988784790039 10.373660087585447 L -52.29800033569336 10.41800022125244 L -52.2400016784668 10.46000003814697 L -52.2239990234375 10.472571372985838 L -52.183998107910156 10.503999710083006 L -52.124000549316406 10.543999671936033 L -52.060001373291016 10.579999923706053 L -51.99100112915039 10.611000061035154 L -51.917999267578125 10.637999534606932 L -51.84000015258789 10.659999847412108 L -51.76599884033203 10.678000450134276 L -51.691001892089844 10.692999839782713 L -51.6150016784668 10.704999923706053 L -51.53799819946289 10.713000297546385 L -51.45899963378906 10.718000411987303 L -51.380001068115234 10.720000267028807 L -51.20000076293945 10.720000267028807 L -50.20000076293945 10.720000267028807 L -50.20000076293945 12.199999809265133 L -51.20000076293945 12.199999809265133 L -53.24800109863281 12.199999809265133 L -57.34400177001953 12.199999809265133 L -57.439998626708984 12.199999809265133 L -57.439998626708984 10.720000267028807 L -57.34400177001953 10.720000267028807 L -57.119998931884766 10.720000267028807 L -56.99599838256836 10.718000411987303 L -56.875999450683594 10.711000442504881 L -56.7599983215332 10.699999809265135 L -56.64899826049805 10.684000015258787 L -56.54199981689453 10.663999557495115 L -56.439998626708984 10.640000343322752 L -56.340999603271484 10.60900020599365 L -56.242000579833984 10.571000099182127 L -56.14500045776367 10.524999618530272 L -56.04899978637695 10.4709997177124 L -55.95399856567383 10.409000396728514 L -55.86000061035156 10.340000152587889 L -55.77399826049805 10.262000083923338 L -55.752986907958984 10.239999771118162 L -55.68899917602539 10.173000335693358 L -55.60499954223633 10.074999809265135 L -55.52199935913086 9.967000007629393 L -55.441001892089844 9.847999572753904 L -55.36000061035156 9.720000267028807 L -55.279998779296875 9.586999893188475 L -55.20000076293945 9.439999580383299 L -55.119998931884766 9.27999973297119 L -55.040000915527344 9.107000350952147 L -54.959999084472656 8.920000076293944 L -54.880001068115234 8.720000267028807 L -54.68547439575195 8.19200038909912 L -51.6673698425293 1.1102230246251565e-16 L -49.152000427246094 -6.8274283409118635 L -48.86000061035156 -7.61999988555908 L -47.10267639160156 -7.61999988555908 L -47.091163635253906 -7.61999988555908 L -47.05251693725586 -7.61999988555908 L -47.04230880737305 -7.61999988555908 L -47.0255012512207 -7.61999988555908 L -45.060001373291016 -7.61999988555908 M -47.770999908447266 -4.052999973297118 L -47.78200149536133 -4.09600019454956 L -47.78894805908203 -4.12315797805786 L -47.814998626708984 -4.2249999046325675 L -47.858001708984375 -4.393000125885009 L -47.89899826049805 -4.558000087738036 L -47.936309814453125 -4.705413341522216 L -47.93756866455078 -4.710398197174071 L -47.938167572021484 -4.712756633758544 L -47.93975067138672 -4.71901512145996 L -47.939998626708984 -4.7199997901916495 L -47.98099899291992 -4.57800006866455 L -48.02399826049805 -4.431000232696532 L -48.06999969482422 -4.280000209808349 L -48.11800003051758 -4.124000072479247 L -48.12675094604492 -4.09600019454956 L -48.167999267578125 -3.9639999866485587 L -48.220001220703125 -3.7999999523162833 L -48.27399826049805 -3.632999897003173 L -48.32899856567383 -3.4639999866485587 L -48.3849983215332 -3.2950000762939444 L -48.44200134277344 -3.124000072479247 L -48.45994186401367 -3.07200002670288 L -48.500999450683594 -2.9530000686645503 L -48.560001373291016 -2.77999997138977 L -48.68199920654297 -2.4219999313354488 L -48.744998931884766 -2.2449998855590816 L -48.808998107910156 -2.0690000057220455 L -48.81679916381836 -2.04800009727478 L -48.874000549316406 -1.8940000534057613 L -48.93090057373047 -1.7439860105514522 L -48.939998626708984 -1.720000028610229 L -48.999000549316406 -1.54200005531311 L -49.028499603271484 -1.4544999599456783 L -49.05799865722656 -1.3669999837875362 L -49.1150016784668 -1.195000052452087 L -49.152000427246094 -1.0839999914169307 L -49.279998779296875 -0.6999999880790708 L -49.525299072265625 1.1102230246251565e-16 L -50.91999816894531 3.9800000190734854 L -49.152000427246094 3.9800000190734854 L -45.35927963256836 3.9800000190734854 L -45.29999923706055 3.9800000190734854 L -46.59744644165039 1.1102230246251565e-16 L -46.63136291503906 -0.10404591262340532 L -46.70994186401367 -0.3450887501239775 L -46.7254753112793 -0.39273685216903664 L -46.7624397277832 -0.5061355829238889 L -46.779998779296875 -0.5600000023841856 L -46.82699966430664 -0.721000015735626 L -46.875999450683594 -0.8840000033378598 L -46.888248443603516 -0.9254999756813046 L -46.92499923706055 -1.0499999523162837 L -46.97600173950195 -1.2180000543594356 L -46.98725128173828 -1.255499958992004 L -47.027000427246094 -1.3880000114440914 L -47.08000183105469 -1.5599999427795406 L -47.104000091552734 -1.6387923955917354 L -47.132999420166016 -1.7339999675750728 L -47.183998107910156 -1.9090000391006465 L -47.22427749633789 -2.04800009727478 L -47.23500061035156 -2.085000038146972 L -47.284000396728516 -2.2620000839233394 L -47.33300018310547 -2.4409999847412105 L -47.35470962524414 -2.5236771106719966 L -47.380001068115234 -2.6199998855590816 L -47.43299865722656 -2.7999999523162837 L -47.510066986083984 -3.07200002670288 L -47.53499984741211 -3.1600000858306876 L -47.632999420166016 -3.519999980926513 L -47.68000030517578 -3.700000047683715 L -47.72600173950195 -3.878000020980834 L -47.770999908447266 -4.052999973297118 M -10.680000305175781 -3.9000000953674308 L -10.86400032043457 -3.5269999504089347 L -11.031000137329102 -3.127000093460082 L -11.180000305175781 -2.7000000476837154 L -11.310999870300293 -2.2469999790191646 L -11.423999786376953 -1.7669999599456783 L -11.520000457763672 -1.2599999904632564 L -11.593000411987305 -0.7340000271797178 L -11.652999877929688 -0.18199999630451189 L -11.667824745178223 1.1102230246251565e-16 L -11.699999809265137 0.39500001072883606 L -11.732999801635742 0.9980000257492064 L -11.753000259399414 1.626000046730041 L -11.760000228881836 2.27999997138977 L -11.753000259399414 2.9340000152587886 L -11.732999801635742 3.563999891281127 L -11.70403003692627 4.09600019454956 L -11.699999809265137 4.170000076293944 L -11.652999877929688 4.750999927520751 L -11.593000411987305 5.308000087738036 L -11.520000457763672 5.84000015258789 L -11.423999786376953 6.347000122070311 L -11.310999870300293 6.827000141143797 L -11.180000305175781 7.280000209808348 L -11.031000137329102 7.706999778747557 L -10.86400032043457 8.107000350952147 L -10.822070121765137 8.19200038909912 L -10.680000305175781 8.479999542236326 L -10.482999801635742 8.826000213623045 L -10.267000198364258 9.142000198364256 L -10.029999732971191 9.43000030517578 L -9.77299976348877 9.689000129699705 L -9.496999740600586 9.918999671936033 L -9.199999809265137 10.11999988555908 L -8.981754302978516 10.239999771118162 L -8.888999938964844 10.291000366210936 L -8.557999610900879 10.430999755859373 L -8.204999923706055 10.539999961853026 L -8.192000389099121 10.542711257934569 L -7.830999851226807 10.618000030517576 L -7.435999870300293 10.663999557495115 L -7.019999980926514 10.68000030517578 L -6.5970001220703125 10.663999557495115 L -6.196000099182129 10.618000030517576 L -5.815000057220459 10.539999961853026 L -5.455999851226807 10.430999755859373 L -5.117000102996826 10.291000366210936 L -4.800000190734863 10.11999988555908 L -4.508999824523926 9.918999671936033 L -4.23799991607666 9.689000129699705 L -4.0960001945495605 9.543632507324217 L -3.984999895095825 9.43000030517578 L -3.750999927520752 9.142000198364256 L -3.5360000133514404 8.826000213623045 L -3.3399999141693115 8.479999542236326 L -3.20719575881958 8.19200038909912 L -3.1679999828338623 8.107000350952147 L -3.010999917984009 7.706999778747557 L -2.869999885559082 7.280000209808348 L -2.74399995803833 6.827000141143797 L -2.634000062942505 6.347000122070311 L -2.5399999618530273 5.84000015258789 L -2.4609999656677246 5.308000087738036 L -2.3959999084472656 4.750999927520751 L -2.3450000286102295 4.170000076293944 L -2.309000015258789 3.563999891281127 L -2.2869999408721924 2.9340000152587886 L -2.2799999713897705 2.27999997138977 L -2.2869999408721924 1.626000046730041 L -2.309000015258789 0.9980000257492064 L -2.3450000286102295 0.39500001072883606 L -2.379913330078125 1.1102230246251565e-16 L -2.3959999084472656 -0.18199999630451189 L -2.4609999656677246 -0.7340000271797178 L -2.5399999618530273 -1.2599999904632564 L -2.634000062942505 -1.7669999599456783 L -2.74399995803833 -2.2469999790191646 L -2.869999885559082 -2.7000000476837154 L -3.010999917984009 -3.127000093460082 L -3.1679999828338623 -3.5269999504089347 L -3.3399999141693115 -3.9000000953674308 L -3.451028823852539 -4.09600019454956 L -3.5360000133514404 -4.245999813079833 L -3.750999927520752 -4.561999797821044 L -3.984999895095825 -4.8499999046325675 L -4.0960001945495605 -4.963632583618163 L -4.23799991607666 -5.1090002059936515 L -4.508999824523926 -5.339000225067138 L -4.800000190734863 -5.5399999618530265 L -5.111000061035156 -5.717000007629394 L -5.441999912261963 -5.861999988555907 L -5.795000076293945 -5.9749999046325675 L -6.144000053405762 -6.050585746765135 L -6.169000148773193 -6.056000232696531 L -6.564000129699707 -6.104000091552733 L -6.980000019073486 -6.11999988555908 L -7.4079999923706055 -6.104000091552733 L -7.813000202178955 -6.056000232696531 L -8.192000389099121 -5.97563600540161 L -8.194999694824219 -5.9749999046325675 L -8.553000450134277 -5.861999988555907 L -8.887999534606934 -5.717000007629394 L -9.199999809265137 -5.5399999618530265 L -9.496999740600586 -5.339000225067138 L -9.77299976348877 -5.1090002059936515 L -10.029999732971191 -4.8499999046325675 L -10.239999771118164 -4.594810009002685 L -10.267000198364258 -4.561999797821044 L -10.482999801635742 -4.245999813079833 L -10.568404197692871 -4.09600019454956 L -10.680000305175781 -3.9000000953674308 M -24.97100067138672 -0.14900000393390642 L -24.875 -0.3249999880790709 L -24.791000366210938 -0.5159999728202818 L -24.7189998626709 -0.721000015735626 L -24.65999984741211 -0.9399999976158139 L -24.604999542236328 -1.1740000247955318 L -24.576000213623047 -1.3338222503662105 L -24.559999465942383 -1.4220000505447383 L -24.524999618530273 -1.6849999427795406 L -24.5 -1.9620000123977657 L -24.485000610351562 -2.2539999485015865 L -24.479999542236328 -2.5599999427795406 L -24.486000061035156 -2.8710000514984126 L -24.50200080871582 -3.1640000343322745 L -24.530000686645508 -3.440000057220458 L -24.569000244140625 -3.697999954223632 L -24.576000213623047 -3.731600046157836 L -24.618999481201172 -3.937999963760375 L -24.66241455078125 -4.09600019454956 L -24.68000030517578 -4.1599998474121085 L -24.746000289916992 -4.361000061035155 L -24.823999404907227 -4.548999786376952 L -24.915000915527344 -4.7249999046325675 L -25.01799964904785 -4.888999938964843 L -25.132999420166016 -5.040999889373778 L -25.260000228881836 -5.179999828338622 L -25.400999069213867 -5.307000160217284 L -25.555999755859375 -5.420000076293944 L -25.725000381469727 -5.519999980926513 L -25.909000396728516 -5.606999874114989 L -26.10700035095215 -5.679999828338622 L -26.31999969482422 -5.739999771118163 L -26.54199981689453 -5.795000076293944 L -26.624000549316406 -5.810504436492919 L -26.780000686645508 -5.84000015258789 L -27.03499984741211 -5.874999999999999 L -27.30699920654297 -5.900000095367431 L -27.594999313354492 -5.9149999618530265 L -27.899999618530273 -5.920000076293944 L -28.672000885009766 -5.920000076293944 L -28.899999618530273 -5.920000076293944 L -28.899999618530273 1.1102230246251565e-16 L -28.899999618530273 0.9800000190734862 L -28.672000885009766 0.9800000190734862 L -27.84000015258789 0.9800000190734862 L -27.527999877929688 0.9739999771118163 L -27.232999801635742 0.9580000042915343 L -26.954999923706055 0.9300000071525573 L -26.69300079345703 0.8909999728202819 L -26.447999954223633 0.8410000205039977 L -26.219999313354492 0.7799999713897704 L -26.013999938964844 0.7070000171661377 L -25.82200050354004 0.621999979019165 L -25.645000457763672 0.5249999761581421 L -25.48200035095215 0.41600000858306885 L -25.333999633789062 0.2939999997615815 L -25.200000762939453 0.1599999964237214 L -25.07900047302246 0.013000000268221009 L -25.07033348083496 1.1102230246251565e-16 L -24.97100067138672 -0.14900000393390642 M -24.131000518798828 4.019999980926513 L -24.23900032043457 3.8329999446868888 L -24.360000610351562 3.6600000858306876 L -24.5 3.506999969482421 L -24.576000213623047 3.437457561492919 L -24.652999877929688 3.3670001029968253 L -24.81999969482422 3.2400000095367423 L -25 3.127000093460082 L -25.19300079345703 3.0269999504089347 L -25.399999618530273 2.9400000572204585 L -25.621999740600586 2.861000061035156 L -25.86199951171875 2.796000003814697 L -26.1200008392334 2.7449998855590816 L -26.395999908447266 2.7090001106262203 L -26.68899917602539 2.6870000362396236 L -27 2.6800000667572017 L -28.672000885009766 2.6800000667572017 L -28.899999618530273 2.6800000667572017 L -28.899999618530273 4.09600019454956 L -28.899999618530273 8.19200038909912 L -28.899999618530273 10.499999999999998 L -27.059999465942383 10.499999999999998 L -26.76099967956543 10.494000434875487 L -26.47599983215332 10.477999687194822 L -26.204999923706055 10.449999809265135 L -25.948999404907227 10.411000251770018 L -25.707000732421875 10.361000061035154 L -25.479999542236328 10.300000190734862 L -25.273000717163086 10.225999832153319 L -25.077999114990234 10.137999534606932 L -24.895000457763672 10.034999847412108 L -24.724000930786133 9.91800022125244 L -24.576000213623047 9.794354438781737 L -24.56599998474121 9.786000251770018 L -24.420000076293945 9.640000343322752 L -24.292999267578125 9.484999656677244 L -24.17799949645996 9.312999725341795 L -24.075000762939453 9.124999999999998 L -23.983999252319336 8.920000076293944 L -23.9060001373291 8.697999954223631 L -23.84000015258789 8.46000003814697 L -23.77899932861328 8.211000442504881 L -23.775468826293945 8.19200038909912 L -23.729000091552734 7.941999912261961 L -23.690000534057617 7.655000209808348 L -23.66200065612793 7.348999977111815 L -23.645999908447266 7.024000167846678 L -23.639999389648438 6.679999828338621 L -23.645000457763672 6.347000122070311 L -23.65999984741211 6.028999805450438 L -23.684999465942383 5.7249999046325675 L -23.719999313354492 5.435999870300292 L -23.764999389648438 5.16099977493286 L -23.81999969482422 4.900000095367431 L -23.878999710083008 4.6599998474121085 L -23.951000213623047 4.433000087738036 L -24.03499984741211 4.2199997901916495 L -24.094520568847656 4.09600019454956 L -24.131000518798828 4.019999980926513 z" fill="none" stroke="rgb(255,0,0)" stroke-width="0.001mm" />
</svg>